<svg
        xmlns="http://www.w3.org/2000/svg"
        xmlns:xlink="http://www.w3.org/1999/xlink"
        width="18px" height="17px">
    <path fill-rule="evenodd"  fill="rgb(121, 124, 127)"
          d="M17.535,15.121 L16.121,16.535 L11.232,11.646 C10.054,12.483 8.598,13.000 7.000,13.000 C3.134,13.000 -0.000,10.090 -0.000,6.500 C-0.000,2.910 3.134,-0.000 7.000,-0.000 C10.866,-0.000 14.000,2.910 14.000,6.500 C14.000,7.909 13.505,9.205 12.684,10.270 L17.535,15.121 ZM7.000,2.000 C4.239,2.000 2.000,4.015 2.000,6.500 C2.000,8.985 4.239,11.000 7.000,11.000 C9.761,11.000 12.000,8.985 12.000,6.500 C12.000,4.015 9.761,2.000 7.000,2.000 Z"/>
</svg>