<svg xmlns="http://www.w3.org/2000/svg" viewBox="0 0 84.91 39.99"><defs><style>.cls-1{isolation:isolate;}.cls-2,.cls-4{fill:#088be3;}.cls-2,.cls-3{fill-rule:evenodd;}.cls-3{fill:#fff;}</style></defs><title>Watch ru отзывы</title><g id="Фигура_9_копия" data-name="Фигура 9 копия" class="cls-1"><g id="Фигура_9_копия-2" data-name="Фигура 9 копия"><polygon class="cls-2" points="15.92 12.97 12.48 19.94 9.04 12.97 5.37 12.97 10.87 25.06 14.08 25.06 19.59 12.97 15.92 12.97"/></g></g><g id="Фигура_9" data-name="Фигура 9" class="cls-1"><g id="Фигура_9-2" data-name="Фигура 9"><path class="cls-2" d="M70,75.74c.92.06-14.63-5.76-8.86-24.12h-.44S50.1,70.92,70.93,79.38c0,0,17.29,4.63,23.55-11.64C94.42,67.74,86.11,81.81,70,75.74Z" transform="translate(-58.01 -40)"/></g></g><g id="Фигура_1" data-name="Фигура 1" class="cls-1"><g id="Фигура_1-2" data-name="Фигура 1"><path class="cls-3" d="M60.71,51.63h.44s8.11-14,24.88-6.27L77.15,60.58h-.89l-8.44-13,6.67,17.46H78L88.26,43.12S71.6,32.05,60.71,51.63Z" transform="translate(-58.01 -40)"/></g></g><g id="Фигура_2" data-name="Фигура 2" class="cls-1"><g id="Фигура_2-2" data-name="Фигура 2"><path class="cls-3" d="M83.81,53.42v3.13s4.77-2.06,5.78,0c0,0-7.55-1.2-7.55,4.48,0,0,0,2.13,2.67,3.58h8v-9S92.46,50.87,83.81,53.42Zm5.78,8.06s-3.64,1.38-4.89-.9c0,0,1.56-2,4.89-.9Z" transform="translate(-58.01 -40)"/></g></g><g id="Фигура_3" data-name="Фигура 3" class="cls-1"><g id="Фигура_3-2" data-name="Фигура 3"><path class="cls-3" d="M100.7,60.58s-1.88,2.06-3.11.9V55.66h4V53h-4V50.73l-3.11.9V53H93.15v2.69h1.33v7.16s3.7,4.41,7.55,0Z" transform="translate(-58.01 -40)"/></g></g><g id="Фигура_4" data-name="Фигура 4" class="cls-1"><g id="Фигура_4-2" data-name="Фигура 4"><path class="cls-3" d="M104.7,58.79c.8-5.07,6.22-2.24,6.22-2.24l1.78-2.69C104,49.82,102,57,102,57c-.92,4.34,1.78,6.27,1.78,6.27,4,3.06,8.89,0,8.89,0l-1.33-2.69C104.69,63,104.7,58.79,104.7,58.79Z" transform="translate(-58.01 -40)"/></g></g><g id="Фигура_5" data-name="Фигура 5" class="cls-1"><g id="Фигура_5-2" data-name="Фигура 5"><path class="cls-3" d="M116.7,53.86V50.28h-3.11V64.61h3.11V57.45s.9-2.8,4-.9v4.92h3.11V56.1S122.59,51,116.7,53.86Z" transform="translate(-58.01 -40)"/></g></g><g id="Фигура_6" data-name="Фигура 6" class="cls-1"><g id="Фигура_6-2" data-name="Фигура 6"><rect class="cls-4" x="62.69" y="22.37" width="3.11" height="2.24"/></g></g><g id="Фигура_7" data-name="Фигура 7" class="cls-1"><g id="Фигура_7-2" data-name="Фигура 7"><path class="cls-2" d="M128.25,53h-3.11V64.61h3.11V56.55s-.1-.9,3.55-.9V53.1c-.45.07-1.46.17-3.55.32C128.11,53.43,128.38,53,128.25,53Zm3.55,0v.13C132.52,53,131.8,53,131.8,53Z" transform="translate(-58.01 -40)"/></g></g><g id="Фигура_8" data-name="Фигура 8" class="cls-1"><g id="Фигура_8-2" data-name="Фигура 8"><path class="cls-2" d="M139.8,53V61s-2.51,2.07-4.44,0V53h-3.11v9a2.81,2.81,0,0,0,3.11,2.69s2.62-.25,4.89-.45c.15,0-.18.45,0,.45h2.69V53Z" transform="translate(-58.01 -40)"/></g></g><g id="отзывы" class="cls-1"><g id="отзывы-2" data-name="отзывы"><path class="cls-3" d="M100.56,67.94a3.05,3.05,0,0,0-1.1-.77A3.79,3.79,0,0,0,98,66.9a3.85,3.85,0,0,0-1.45.27,2.92,2.92,0,0,0-1.11.77,3.57,3.57,0,0,0-.71,1.27,5.88,5.88,0,0,0,0,3.36,3.48,3.48,0,0,0,.71,1.25,3,3,0,0,0,1.11.77,4.15,4.15,0,0,0,2.91,0,3,3,0,0,0,1.11-.78,3.47,3.47,0,0,0,.71-1.24,5.27,5.27,0,0,0,.25-1.69,5.35,5.35,0,0,0-.25-1.69A3.49,3.49,0,0,0,100.56,67.94Zm-.76,5.25a2.43,2.43,0,0,1-3.6,0,3.48,3.48,0,0,1-.67-2.3,3.54,3.54,0,0,1,.66-2.3,2.43,2.43,0,0,1,3.62,0,3.54,3.54,0,0,1,.66,2.3A3.49,3.49,0,0,1,99.8,73.18ZM102.62,68h2.71V74.7h1V68H109v-.9h-6.43ZM114.9,71a1.86,1.86,0,0,0-.54-.33,2.84,2.84,0,0,0-.57-.17v-.08a2,2,0,0,0,1.05-.59,1.57,1.57,0,0,0,.42-1.1,1.55,1.55,0,0,0-.21-.81,1.78,1.78,0,0,0-.61-.6,2.83,2.83,0,0,0-.83-.33,5,5,0,0,0-1.08-.1,5.93,5.93,0,0,0-1.27.14,5.76,5.76,0,0,0-1,.3v1.12h.07l.37-.2a3.92,3.92,0,0,1,.5-.22,6.37,6.37,0,0,1,.64-.18,3.28,3.28,0,0,1,.73-.08,3.62,3.62,0,0,1,.67.05,1.78,1.78,0,0,1,.51.18,1,1,0,0,1,.37.33.88.88,0,0,1,.14.49,1,1,0,0,1-.53.94,2.7,2.7,0,0,1-1.42.33h-.91V71h1a4.48,4.48,0,0,1,.82.07,1.92,1.92,0,0,1,.63.22,1.2,1.2,0,0,1,.41.42,1.29,1.29,0,0,1,.15.66,1.58,1.58,0,0,1-.12.64,1.42,1.42,0,0,1-.4.52,1.81,1.81,0,0,1-.69.32,3.27,3.27,0,0,1-.79.11,4.16,4.16,0,0,1-1.21-.19,5,5,0,0,1-1.14-.5H110V74.4a6.78,6.78,0,0,0,2.4.44,4.41,4.41,0,0,0,1.26-.17,2.68,2.68,0,0,0,1-.52,2.56,2.56,0,0,0,.59-.74,2,2,0,0,0,.23-1,2,2,0,0,0-.16-.85A1.71,1.71,0,0,0,114.9,71Zm7.55-.45a2.1,2.1,0,0,0-.92-.43,7.23,7.23,0,0,0-1.26-.09h-1.72v-3h-1V74.7h2.7a4.59,4.59,0,0,0,1.26-.14,2.69,2.69,0,0,0,.92-.48,2,2,0,0,0,.58-.73,2.3,2.3,0,0,0,.22-1,2.61,2.61,0,0,0-.19-1A1.83,1.83,0,0,0,122.45,70.58ZM122,73a1.25,1.25,0,0,1-.42.47,1.62,1.62,0,0,1-.64.26,6.16,6.16,0,0,1-1,.07h-1.38v-2.9h1.41a9.91,9.91,0,0,1,1,0,1.41,1.41,0,0,1,.65.23,1.07,1.07,0,0,1,.4.47,1.68,1.68,0,0,1,.13.68A1.55,1.55,0,0,1,122,73Zm2.07,1.66h1V67.06h-1Zm7.63-4.35v0a2,2,0,0,0,.73-.61,1.54,1.54,0,0,0,.28-.93,1.71,1.71,0,0,0-.19-.83,1.41,1.41,0,0,0-.61-.57,2.52,2.52,0,0,0-.79-.26,9.17,9.17,0,0,0-1.24-.06h-2.25V74.7h2.69a4.92,4.92,0,0,0,1.3-.14,2.66,2.66,0,0,0,.94-.48,2,2,0,0,0,.58-.72,2.26,2.26,0,0,0,.21-1,2,2,0,0,0-.44-1.32A2.09,2.09,0,0,0,131.72,70.35Zm-3.06-2.43h1.2q.5,0,.85,0a1.43,1.43,0,0,1,.58.17.71.71,0,0,1,.3.31,1.07,1.07,0,0,1,.09.47,1.52,1.52,0,0,1-.1.58.85.85,0,0,1-.34.4,1.39,1.39,0,0,1-.52.2,4.6,4.6,0,0,1-.75,0h-1.3Zm3.53,5.13a1.29,1.29,0,0,1-.42.46,1.7,1.7,0,0,1-.69.25,6.93,6.93,0,0,1-1.08.07h-1.33V71h1.58a7.9,7.9,0,0,1,.85,0,1.67,1.67,0,0,1,.59.17,1.11,1.11,0,0,1,.5.46,1.64,1.64,0,0,1,.14.73A1.44,1.44,0,0,1,132.19,73.05Zm9.69-6V74.7h1V67.06Zm-1.64,3.52a2.1,2.1,0,0,0-.92-.43,7.23,7.23,0,0,0-1.26-.09h-1.72v-3h-1V74.7H138a4.59,4.59,0,0,0,1.26-.14,2.69,2.69,0,0,0,.92-.48,2,2,0,0,0,.58-.73,2.3,2.3,0,0,0,.22-1,2.61,2.61,0,0,0-.19-1A1.83,1.83,0,0,0,140.24,70.58ZM139.81,73a1.25,1.25,0,0,1-.42.47,1.62,1.62,0,0,1-.64.26,6.16,6.16,0,0,1-1,.07h-1.38v-2.9h1.41a9.91,9.91,0,0,1,1,0,1.41,1.41,0,0,1,.65.23,1.07,1.07,0,0,1,.4.47,1.69,1.69,0,0,1,.13.68A1.55,1.55,0,0,1,139.81,73Z" transform="translate(-58.01 -40)"/></g></g></svg>