<svg xmlns="http://www.w3.org/2000/svg" viewBox="0 0 123.42 31"><defs><style>.cls-1{isolation:isolate;}.cls-2{fill:#fff;}.cls-2,.cls-3,.cls-4{fill-rule:evenodd;}.cls-3{fill:#788084;}.cls-4{fill:#cb9756;}</style></defs><title>Chrono 24</title><g id="chrono" class="cls-1"><g id="chrono-2" data-name="chrono"><path class="cls-2" d="M59.76,45.28a5.15,5.15,0,0,0-3.87,1.51A5.73,5.73,0,0,0,54.43,51a7.24,7.24,0,0,0,.39,2.49,4.67,4.67,0,0,0,1.1,1.76,4.42,4.42,0,0,0,1.68,1,6.51,6.51,0,0,0,2.16.34,6.17,6.17,0,0,0,1.75-.24,11.85,11.85,0,0,0,1.74-.68v-2h-.1q-.2.16-.56.39a8.26,8.26,0,0,1-.75.43,5,5,0,0,1-1,.38,4.6,4.6,0,0,1-1.13.15A3.06,3.06,0,0,1,57.21,54a4.56,4.56,0,0,1-.88-3,4.55,4.55,0,0,1,.9-3.06,3.08,3.08,0,0,1,2.46-1,4.75,4.75,0,0,1,1.74.35,7,7,0,0,1,1.73,1h.1v-2a9.64,9.64,0,0,0-1.65-.64A6.55,6.55,0,0,0,59.76,45.28Zm12.31,0a4.68,4.68,0,0,0-1.88.4,7.45,7.45,0,0,0-1.77,1.1V41.28H66.59V56.34h1.83V48.27A8,8,0,0,1,70,47.33,3.82,3.82,0,0,1,71.56,47a3,3,0,0,1,1.19.2,1.48,1.48,0,0,1,.7.61,2.55,2.55,0,0,1,.32,1,10.55,10.55,0,0,1,.09,1.4v6.16h1.83v-7a4.48,4.48,0,0,0-.93-3A3.38,3.38,0,0,0,72.08,45.23Zm13.59.3a4.21,4.21,0,0,0-1.7.36A9,9,0,0,0,82,47.12v-1.6H80.21V56.34H82V48.66a7.55,7.55,0,0,1,1.52-1,3.79,3.79,0,0,1,1.64-.37,8.22,8.22,0,0,1,.91,0,6.77,6.77,0,0,1,.79.14H87V45.64l-.64-.09Q86.14,45.53,85.67,45.53Zm8.31-.3a4.65,4.65,0,0,0-3.67,1.53A6.08,6.08,0,0,0,89,50.94a6.06,6.06,0,0,0,1.36,4.17,5.14,5.14,0,0,0,7.32,0A6,6,0,0,0,99,50.94a6.07,6.07,0,0,0-1.36-4.18A4.64,4.64,0,0,0,94,45.23ZM96.27,54a3.05,3.05,0,0,1-4.6,0,4.91,4.91,0,0,1-.83-3.08,4.93,4.93,0,0,1,.82-3.12,3.11,3.11,0,0,1,4.61,0,4.91,4.91,0,0,1,.83,3.12A4.88,4.88,0,0,1,96.27,54Zm12-8.81a4.68,4.68,0,0,0-1.88.4,7.45,7.45,0,0,0-1.77,1.1v-1.2h-1.83V56.34h1.83V48.27a8,8,0,0,1,1.57-.94,3.82,3.82,0,0,1,1.57-.37,3,3,0,0,1,1.19.2,1.48,1.48,0,0,1,.7.61,2.55,2.55,0,0,1,.32,1,10.55,10.55,0,0,1,.09,1.4v6.16h1.83v-7a4.48,4.48,0,0,0-.93-3A3.38,3.38,0,0,0,108.31,45.23Zm16,1.53a5.13,5.13,0,0,0-7.32,0,6.08,6.08,0,0,0-1.36,4.18A6.06,6.06,0,0,0,117,55.11a5.14,5.14,0,0,0,7.32,0,6,6,0,0,0,1.36-4.17A6.07,6.07,0,0,0,124.35,46.76ZM123,54a3.05,3.05,0,0,1-4.6,0,4.91,4.91,0,0,1-.83-3.08,4.93,4.93,0,0,1,.82-3.12,3.11,3.11,0,0,1,4.61,0,4.91,4.91,0,0,1,.83,3.12A4.88,4.88,0,0,1,123,54Z" transform="translate(-29 -36)"/></g></g><g id="The_World_s_Watch_Market" data-name="The World’s Watch Market" class="cls-1"><g id="The_World_s_Watch_Market-2" data-name="The World’s Watch Market"><path class="cls-3" d="M57.74,62.59H59.5V66.9h.65V62.59h1.75V62H57.74Zm6.63.54a1.58,1.58,0,0,0-.64.13,2.52,2.52,0,0,0-.6.37V61.79h-.62v5.1h.62V64.16a2.71,2.71,0,0,1,.53-.32,1.29,1.29,0,0,1,.53-.12,1,1,0,0,1,.4.07.5.5,0,0,1,.24.2.86.86,0,0,1,.11.35,3.57,3.57,0,0,1,0,.47V66.9h.62V64.52a1.52,1.52,0,0,0-.31-1A1.15,1.15,0,0,0,64.37,63.13Zm3.95,0a1.69,1.69,0,0,0-1.3.53,2,2,0,0,0-.49,1.43,1.85,1.85,0,0,0,.51,1.4,2,2,0,0,0,1.43.49,2.61,2.61,0,0,0,.69-.09,5.13,5.13,0,0,0,.64-.22V66h0a1.87,1.87,0,0,1-.54.29,2.06,2.06,0,0,1-.76.15,1.63,1.63,0,0,1-.52-.08,1.12,1.12,0,0,1-.41-.24,1.1,1.1,0,0,1-.28-.41,1.55,1.55,0,0,1-.1-.59h2.71v-.33a1.73,1.73,0,0,0-.4-1.23A1.49,1.49,0,0,0,68.32,63.13Zm-1.16,1.52a1.13,1.13,0,0,1,.33-.72,1.08,1.08,0,0,1,.79-.29,1,1,0,0,1,.74.27,1.09,1.09,0,0,1,.25.75Zm10.13,1.46-1-4.1H75.6l-1,4.06-1-4.06h-.67l1.3,4.88h.72l1-4.05,1,4.05h.74L78.95,62h-.64Zm3.69-3a1.57,1.57,0,0,0-1.24.52,2.4,2.4,0,0,0,0,2.83,1.74,1.74,0,0,0,2.48,0,2.4,2.4,0,0,0,0-2.83A1.57,1.57,0,0,0,81,63.13Zm.78,3a1,1,0,0,1-1.56,0,2.12,2.12,0,0,1,0-2.1,1.05,1.05,0,0,1,1.56,0,2.11,2.11,0,0,1,0,2.1Zm3.73-2.88a1.43,1.43,0,0,0-.58.12,3,3,0,0,0-.65.42v-.54h-.62V66.9h.62V64.3a2.56,2.56,0,0,1,.51-.33,1.28,1.28,0,0,1,.55-.13h.31l.27,0h0v-.63l-.22,0Zm1,3.66h.62v-5.1h-.62Zm4.21-3.51a2.4,2.4,0,0,0-.47-.19,2,2,0,0,0-.51-.06,1.53,1.53,0,0,0-1.14.51,1.91,1.91,0,0,0-.36.62,2.4,2.4,0,0,0-.13.83,2.25,2.25,0,0,0,.39,1.4,1.25,1.25,0,0,0,1,.5,1.55,1.55,0,0,0,.63-.13,2.25,2.25,0,0,0,.56-.36v.38h.62v-5.1h-.62Zm0,2.61a2.27,2.27,0,0,1-.5.3,1.34,1.34,0,0,1-.53.12.8.8,0,0,1-.72-.34,1.8,1.8,0,0,1-.22-1,1.59,1.59,0,0,1,.29-1,1,1,0,0,1,.81-.36,2.05,2.05,0,0,1,.43,0,2.34,2.34,0,0,1,.45.15Zm1.76-2.37h.45l.89-1.83H93Zm3.4,1.23-.35-.07-.38-.08a1.11,1.11,0,0,1-.45-.19.45.45,0,0,1,.09-.73,1.17,1.17,0,0,1,.57-.13,2,2,0,0,1,.67.12,2.22,2.22,0,0,1,.58.29h0v-.66a2.53,2.53,0,0,0-.56-.2,2.88,2.88,0,0,0-.67-.08,2.11,2.11,0,0,0-.64.09,1.37,1.37,0,0,0-.47.24,1,1,0,0,0-.29.36,1,1,0,0,0-.09.43.93.93,0,0,0,.2.61,1.29,1.29,0,0,0,.69.38l.39.09.34.07a1.13,1.13,0,0,1,.48.19.42.42,0,0,1,.13.33.44.44,0,0,1-.23.41,1.3,1.3,0,0,1-.64.13,2,2,0,0,1-.69-.13,2.49,2.49,0,0,1-.65-.35h0v.69a3.35,3.35,0,0,0,.57.21,2.75,2.75,0,0,0,.75.1,1.82,1.82,0,0,0,1.14-.32,1,1,0,0,0,.42-.82.89.89,0,0,0-.23-.64A1.32,1.32,0,0,0,95.89,64.86Zm8.26,1.25-1-4.1h-.66l-1,4.06-1-4.06h-.67L101,66.9h.72l1-4.05,1,4.05h.74L105.81,62h-.64Zm4.69-2.69a1.32,1.32,0,0,0-.5-.22,3.16,3.16,0,0,0-.68-.06,4,4,0,0,0-.68.06l-.52.11v.63h0a4.24,4.24,0,0,1,.62-.19,2.63,2.63,0,0,1,.54-.06l.39,0a.89.89,0,0,1,.32.1.54.54,0,0,1,.21.22.73.73,0,0,1,.07.35v.1q-.54,0-1,.08a2.78,2.78,0,0,0-.81.2,1.2,1.2,0,0,0-.51.4,1.15,1.15,0,0,0-.18.67,1.1,1.1,0,0,0,.35.84,1.18,1.18,0,0,0,.84.33,1.94,1.94,0,0,0,.47-.05,1.85,1.85,0,0,0,.36-.13,1.59,1.59,0,0,0,.27-.16l.22-.16v.39h.62V64.41a1.43,1.43,0,0,0-.11-.59A1,1,0,0,0,108.83,63.43ZM108.64,66a2.69,2.69,0,0,1-.5.3,1.39,1.39,0,0,1-.6.13.9.9,0,0,1-.58-.16.67.67,0,0,1,0-.91,1,1,0,0,1,.43-.23A3.48,3.48,0,0,1,108,65l.67,0Zm2.44-3.81h-.62v1.05H110v.52h.42V65.7a1.35,1.35,0,0,0,.29,1,1.14,1.14,0,0,0,.86.3l.37,0,.38-.08v-.55h0l-.24.07a1.22,1.22,0,0,1-.32,0,.94.94,0,0,1-.39-.06.44.44,0,0,1-.2-.19.73.73,0,0,1-.09-.3q0-.16,0-.45V63.75h1.28v-.52h-1.28Zm3.57,1a1.74,1.74,0,0,0-1.31.51,1.94,1.94,0,0,0-.5,1.41,2.45,2.45,0,0,0,.13.84,1.58,1.58,0,0,0,.37.6,1.5,1.5,0,0,0,.57.35,2.21,2.21,0,0,0,.73.12,2.09,2.09,0,0,0,.59-.08,4,4,0,0,0,.59-.23V66h0l-.19.13-.25.15a1.68,1.68,0,0,1-.35.13,1.56,1.56,0,0,1-.38,0,1,1,0,0,1-.84-.36,1.9,1.9,0,0,1,0-2.05,1,1,0,0,1,.83-.35,1.61,1.61,0,0,1,.59.12,2.36,2.36,0,0,1,.59.34h0v-.69a3.26,3.26,0,0,0-.56-.22A2.22,2.22,0,0,0,114.65,63.15Zm3.83,0a1.58,1.58,0,0,0-.64.13,2.52,2.52,0,0,0-.6.37V61.79h-.62v5.1h.62V64.16a2.71,2.71,0,0,1,.53-.32,1.29,1.29,0,0,1,.53-.12,1,1,0,0,1,.4.07.5.5,0,0,1,.24.2.86.86,0,0,1,.11.35,3.57,3.57,0,0,1,0,.47V66.9h.62V64.52a1.52,1.52,0,0,0-.31-1A1.15,1.15,0,0,0,118.48,63.13Zm7,1.6L124.21,62h-.89V66.9h.61V62.69l1.36,2.86h.39L127,62.69V66.9h.65V62h-.91Zm5.88-1.3a1.32,1.32,0,0,0-.5-.22,3.16,3.16,0,0,0-.68-.06,4,4,0,0,0-.68.06l-.52.11v.63h0a4.24,4.24,0,0,1,.62-.19,2.63,2.63,0,0,1,.54-.06l.39,0a.89.89,0,0,1,.32.1.54.54,0,0,1,.21.22.73.73,0,0,1,.07.35v.1q-.54,0-1,.08a2.78,2.78,0,0,0-.81.2,1.2,1.2,0,0,0-.51.4,1.15,1.15,0,0,0-.18.67,1.1,1.1,0,0,0,.35.84,1.18,1.18,0,0,0,.84.33,1.94,1.94,0,0,0,.47-.05,1.85,1.85,0,0,0,.36-.13,1.59,1.59,0,0,0,.27-.16l.22-.16v.39h.62V64.41a1.43,1.43,0,0,0-.11-.59A1,1,0,0,0,131.4,63.43ZM131.21,66a2.69,2.69,0,0,1-.5.3,1.39,1.39,0,0,1-.6.13.9.9,0,0,1-.58-.16.67.67,0,0,1,0-.91,1,1,0,0,1,.43-.23,3.48,3.48,0,0,1,.61-.1l.67,0Zm3.66-2.76a1.43,1.43,0,0,0-.58.12,3,3,0,0,0-.65.42v-.54H133V66.9h.62V64.3a2.56,2.56,0,0,1,.51-.33,1.28,1.28,0,0,1,.55-.13H135l.27,0h0v-.63l-.22,0Zm4.25,0h-.78l-1.79,1.83V61.79h-.62v5.1h.62V65.67l.4-.38,1.48,1.6h.82l-1.84-2Zm2.24-.1a1.69,1.69,0,0,0-1.3.53,2,2,0,0,0-.49,1.43,1.85,1.85,0,0,0,.51,1.4,2,2,0,0,0,1.43.49,2.61,2.61,0,0,0,.69-.09,5.13,5.13,0,0,0,.64-.22V66h0a1.87,1.87,0,0,1-.54.29,2.06,2.06,0,0,1-.76.15,1.63,1.63,0,0,1-.52-.08,1.12,1.12,0,0,1-.41-.24,1.11,1.11,0,0,1-.28-.41,1.55,1.55,0,0,1-.1-.59h2.71v-.33a1.73,1.73,0,0,0-.4-1.23A1.49,1.49,0,0,0,141.36,63.13Zm-1.16,1.52a1.13,1.13,0,0,1,.33-.72,1.08,1.08,0,0,1,.79-.29,1,1,0,0,1,.74.27,1.09,1.09,0,0,1,.25.75Zm5.57-.9v-.52h-1.28V62.18h-.62v1.05h-.42v.52h.42V65.7a1.35,1.35,0,0,0,.29,1,1.14,1.14,0,0,0,.86.3l.37,0,.38-.08v-.55h0l-.24.07a1.22,1.22,0,0,1-.32,0,.94.94,0,0,1-.39-.06.44.44,0,0,1-.2-.19.73.73,0,0,1-.09-.3q0-.16,0-.45V63.75Z" transform="translate(-29 -36)"/></g></g><g id="_2" data-name="2" class="cls-1"><g id="_2-2" data-name="2"><path class="cls-4" d="M131.26,54.69l2.07-1.77q1.11-1,2.15-2,.73-.71,1.24-1.29a9.39,9.39,0,0,0,.89-1.18,5.24,5.24,0,0,0,.62-1.35,5.42,5.42,0,0,0,.21-1.54,3.6,3.6,0,0,0-1.27-2.9,5.25,5.25,0,0,0-3.5-1.07,9.44,9.44,0,0,0-2.23.28,9.29,9.29,0,0,0-1.85.62v2h.1a7.83,7.83,0,0,1,2-.95,6.7,6.7,0,0,1,1.92-.31,3.11,3.11,0,0,1,2.08.63,2.18,2.18,0,0,1,.74,1.76,4.11,4.11,0,0,1-.69,2.29,18.68,18.68,0,0,1-2.56,2.86q-.89.86-1.91,1.73l-2,1.74v2h9.82V54.69Z" transform="translate(-29 -36)"/></g></g><g id="L" class="cls-1"><g id="L-2" data-name="L"><polygon class="cls-4" points="19.7 9.84 15.34 14.3 7.42 6.64 6.26 7.83 15.24 16.52 20.76 10.87 19.7 9.84"/></g></g><g id="Фигура_1" data-name="Фигура 1" class="cls-1"><g id="Фигура_1-2" data-name="Фигура 1"><path class="cls-2" d="M43.71,63.37a12.74,12.74,0,1,1,9.61-21.15l1.55-1.12a14.63,14.63,0,1,0-.17,19.25c-.39-.44-.85-1-1.28-1.42A12.8,12.8,0,0,1,43.71,63.37Z" transform="translate(-29 -36)"/></g></g><g id="_4" data-name="4" class="cls-1"><g id="_4-2" data-name="4"><path class="cls-4" d="M150.27,54.57V45.76h-1.79l-7,8.13v2.23h6.94v4.06h1.87V56.12h2.15V54.57Zm-1.87,0h-5.62l5.62-6.51Z" transform="translate(-29 -36)"/></g></g></svg>